<svg xmlns="http://www.w3.org/2000/svg" viewBox="0 0 100 100">
  <defs>
    <clipPath id="circleView2">
      <circle cx="50" cy="50" r="50" />
    </clipPath>
  </defs>
  <g clip-path="url(#circleView2)">
    <!-- Background -->
    <rect width="100" height="100" fill="#e0f2fe" />
    
    <!-- Body Base -->
    <path d="M 15 100 C 15 65 85 65 85 100" fill="#1e3a8a" />
    
    <!-- Shirt -->
    <path d="M 40 100 L 40 70 L 50 85 L 60 70 L 60 100 Z" fill="#bfdbfe" />
    
    <!-- Lapels -->
    <path d="M 15 100 C 30 80 40 70 50 85 C 40 90 35 100 35 100 Z" fill="#172554" />
    <path d="M 85 100 C 70 80 60 70 50 85 C 60 90 65 100 65 100 Z" fill="#172554" />
    
    <!-- Lapel Pin -->
    <circle cx="70" cy="85" r="3" fill="#cbd5e1" />

    <!-- Neck -->
    <rect x="44" y="45" width="12" height="15" fill="#fbcfe8" />
    
    <!-- Face -->
    <circle cx="50" cy="36" r="15" fill="#fbcfe8" />
    
    <!-- Hair (Short blonde/light brown) -->
    <path d="M 33 36 C 30 15 70 15 67 36 C 67 20 33 20 33 36 Z" fill="#d4a373" />
    <path d="M 30 30 C 45 15 65 20 65 20 C 50 10 35 20 30 30 Z" fill="#cc9a66" />
  </g>
</svg>
